<svg width="221" height="39" viewBox="0 0 221 39" fill="none" xmlns="http://www.w3.org/2000/svg">
<path d="M66.3775 0.210503L66.2803 37.8479L36.9198 37.7727L24.4619 24.035H23.9346L23.8993 37.7389L0.705078 37.6785L0.802279 0.0411377L30.3219 0.11772L42.6222 13.6964H43.1495L43.1848 0.15012L66.379 0.210503H66.3775Z" fill="white"/>
<path d="M133.427 0.382866L133.33 38.0202L103.969 37.9451L91.5112 24.2074H90.9839L90.9486 37.9112L67.7544 37.8509L67.8516 0.213501L97.3712 0.290083L109.672 13.8687H110.199L110.234 0.322484L133.428 0.382866H133.427Z" fill="white"/>
<path d="M191.116 2.37675C194.328 3.61532 196.703 5.61531 198.242 8.37817C199.782 11.141 200.546 14.8067 200.534 19.3751C200.522 23.9436 199.739 27.6048 198.187 30.3603C196.633 33.1158 194.247 35.104 191.029 36.3249C187.811 37.5473 183.618 38.1511 178.452 38.1378L134.806 38.0259L134.903 0.38855L178.549 0.500478C183.715 0.513733 187.904 1.13965 191.116 2.37822V2.37675ZM159.638 15.7374L159.62 22.8007L168.95 22.8243C170.496 22.8287 171.621 22.5415 172.325 21.9627C173.029 21.3854 173.383 20.4988 173.387 19.303C173.39 18.1086 173.041 17.2205 172.34 16.6388C171.637 16.057 170.515 15.764 168.969 15.761L159.639 15.7374H159.638Z" fill="white"/>
<path d="M202.154 24.764L220.771 24.8126L220.736 38.2632L202.119 38.2146L202.154 24.764Z" fill="white"/>
</svg>
