<svg width="491" height="177" viewBox="0 0 491 177" fill="none" xmlns="http://www.w3.org/2000/svg">
<path d="M149.502 0.112007L149.764 1.16222C146.905 1.57064 143.901 2.32913 140.75 3.43769C137.658 4.54625 134.332 6.00488 130.773 7.81358C135.441 10.6142 138.766 13.7064 140.75 17.0905C142.734 20.4745 143.726 24.792 143.726 30.0431C143.726 39.3784 139.729 47.1674 131.736 53.4104C123.801 59.6533 113.765 62.7748 101.63 62.7748H99.7916C103.701 63.5916 106.822 65.5754 109.156 68.726C111.548 71.8183 112.744 75.5816 112.744 80.0158C112.744 83.5749 111.111 89.7011 107.843 98.3946C107.26 99.9115 106.851 101.02 106.618 101.72C105.159 105.629 104.022 109.276 103.205 112.66C102.388 116.044 101.98 118.728 101.98 120.712C101.98 121.879 102.476 122.87 103.467 123.687C104.518 124.446 105.801 124.825 107.318 124.825C113.036 124.825 120.854 120.537 130.773 111.96C140.692 103.325 150.085 92.21 158.954 78.6155L160.354 79.1406C150.26 94.2521 140.254 106.038 130.335 114.498C120.417 122.958 111.723 127.188 104.255 127.188C100.813 127.188 97.9829 126.021 95.7658 123.687C93.5487 121.295 92.4401 118.203 92.440 1 114.41C92.4401 111.318 94.2488 105.192 97.8663 96.0316C98.6247 94.0478 99.2082 92.5309 99.6166 91.4807C101.892 85.5878 103.351 81.4453 103.993 79.0531C104.693 76.6026 105.043 74.5314 105.043 72.8394C105.043 69.5137 103.905 67.0048 101.63 65.3128C99.4124 63.6208 95.9992 62.6581 91.3899 62.4247L92.2651 60.6744C93.432 61.0244 94.5406 61.287 95.5908 61.462C96.6993 61.6371 97.7496 61.7246 98.7414 61.7246C102.125 61.7246 105.743 61.0244 109.594 59.6242C113.444 58.2239 117.003 56.2985 120.271 53.848C124.647 50.4056 128.002 46.2923 130.335 41.508C132.669 36.7236 133.836 31.5017 133.836 25.8423C133.836 22.8667 133.253 20.1244 132.086 17.6156C130.977 15.1067 129.285 12.8313 127.01 10.7892C117.208 16.7404 102.68 35.5859 83.4258 67.3257C79.9834 73.1019 77.3287 77.507 75.4617 80.5409C66.2431 95.4773 56.6745 106.913 46.7558 114.848C36.8371 122.783 27.2102 126.75 17.8749 126.75C12.6822 126.75 8.53969 125.729 5.44739 123.687C2.29674 121.587 0.721423 118.786 0.721423 115.286C0.721423 112.893 1.33405 110.997 2.5593 109.597C3.7262 108.138 5.30152 107.409 7.28526 107.409C9.44404 107.409 11.1069 107.934 12.2738 108.984C13.3823 110.034 13.9366 111.551 13.9366 113.535C13.9366 114.819 13.499 115.986 12.6239 117.036C11.7487 118.028 10.6401 118.64 9.29817 118.874C9.99832 120.974 11.2527 122.579 13.0614 123.687C14.8701 124.796 17.0873 125.35 19.7128 125.35C23.3886 125.35 27.0935 124.125 30.8276 121.674C34.5617 119.224 38.85 115.198 43.6927 109.597C49.7023 102.595 57.4913 91.1014 67.06 75.1148C69.5105 71.089 71.3483 68.055 72.5736 66.013C83.6008 48.0426 92.761 35.0025 100.054 26.8925C107.347 18.7825 115.02 12.5395 123.071 8.16365C119.221 6.52998 115.195 5.30473 110.994 4.4879C106.851 3.67107 102.417 3.26265 97.6912 3.26265C87.4808 3.26265 77.2996 4.92549 67.1475 8.25117C56.9954 11.5185 47.806 16.1278 39.5794 22.079C31.6444 27.9135 25.4306 34.6524 20.9381 42.2956C16.3871 49.8805 14.1117 57.3779 14.1117 64.7877C14.1117 70.9723 15.9495 76.1067 19.6253 80.1909C23.301 84.275 27.9103 86.3171 33.4531 86.3171C37.7123 86.3171 42.3216 84.7418 47.2809 81.5911C52.2986 78.4405 56.2953 74.5022 59.2709 69.7762C61.1963 66.8006 62.7424 63.0374 63.9093 58.4864C65.1346 53.9355 65.7472 49.3262 65.7472 44.6586C65.7472 44.1918 65.718 43.6667 65.6597 43.0833C65.6597 42.4998 65.6305 41.9164 65.5722 41.3329L66.7974 41.1579C66.8558 41.9164 66.9141 42.9958 66.9724 44.396C67.0891 45.7963 67.1475 46.6715 67.1475 47.0216C67.1475 51.8059 66.2431 56.7944 64.4344 61.9871C62.6257 67.1799 60.3211 71.5266 57.5205 75.0273C54.0781 79.1698 49.9065 82.408 45.0055 84.7418C40.1045 87.0756 35.0576 88.2425 29.8649 88.2425C22.9218 88.2425 17.554 86.2588 13.7616 82.2913C9.96914 78.3238 8.07292 72.6643 8.07292 65.3128C8.07292 57.1445 10.9027 48.9178 16.5622 40.6328C22.2216 32.2894 30.0107 25.0546 39.9294 18.9283C48.9729 13.3855 58.5416 9.12635 68.6353 6.15074C78.7874 3.17513 88.8227 1.68733 98.7414 1.68733C104.401 1.68733 109.652 2.09574 114.495 2.91258C119.337 3.67107 123.713 4.8088 127.622 6.32578C131.473 4.45873 135.324 2.97092 139.175 1.86236C143.025 0.753804 146.468 0.170352 149.502 0.112007ZM153.356 95.2439C151.839 98.3946 150.731 101.429 150.03 104.346C149.272 107.205 148.893 109.976 148.893 112.66C148.893 116.277 149.739 119.078 151.431 121.062C153.123 122.987 155.544 123.95 158.695 123.95C166.338 123.95 175.323 119.807 185.65 111.522C195.977 103.237 206.246 91.8307 216.456 77.3028L217.682 78.1779C207.296 93.5227 196.24 105.571 184.512 114.323C172.785 123.016 161.962 127.363 152.043 127.363C147.784 127.363 144.4 126.05 141.891 123.425C139.382 120.799 138.128 117.211 138.128 112.66C138.128 107.059 139.908 100.962 143.467 94.3687C146.967 87.7757 151.752 81.737 157.819 76.2525C162.662 71.935 167.68 68.5801 172.873 66.188C178.065 63.7958 182.908 62.5998 187.401 62.5998C190.493 62.5998 192.856 63.2124 194.489 64.4376C196.181 65.6045 197.027 67.2674 197.027 69.4262C197.027 73.452 193.614 77.507 186.788 81.5911C180.02 85.617 168.876 90.1679 153.356 95.2439ZM154.056 93.6686C164.5 90.518 172.756 86.7547 178.824 82.3788C184.892 77.9446 187.926 73.5687 187.926 69.2511C187.926 67.7341 187.517 66.5964 186.7 65.8379C185.884 65.0211 184.687 64.6127 183.112 64.6127C179.611 64.6127 174.973 67.4132 169.197 73.0144C163.362 78.6155 158.315 85.5003 154.056 93.6686ZM253.13 75.5524L259.431 65.3128L271.596 64.7877C261.794 77.857 253.684 89.7595 247.266 100.495C240.907 111.231 237.727 117.969 237.727 120.712C237.727 121.937 238.106 122.9 238.865 123.6C239.623 124.3 240.673 124.65 242.015 124.65C246.683 124.65 253.422 120.507 262.232 112.222C271.1 103.937 281.106 92.3558 292.25 77.4778L293.301 78.4405C282.157 93.7853 271.917 105.688 262.582 114.148C253.305 122.549 245.866 126.75 240.265 126.75C237.464 126.75 235.16 125.904 233.351 124.212C231.484 122.52 230.55 120.391 230.55 117.824C230.55 116.19 230.959 114.41 231.776 112.485C232.592 110.501 233.818 108.342 235.451 106.009L234.926 105.484C229.909 111.785 224.541 116.802 218.823 120.537C213.047 124.212 207.942 126.05 203.507 126.05C200.007 126.05 197.235 124.854 195.193 122.462C193.093 120.011 192.042 116.744 192.042 112.66C192.042 108.401 193.589 103.296 196.681 97.3444C199.773 91.3931 203.857 85.792 208.933 80.5409C213.893 75.4065 219.29 71.3224 225.124 68.2884C230.9 65.2545 236.122 63.7375 240.79 63.7375C244.174 63.7375 246.916 64.7585 249.017 66.8006C251.175 68.7844 252.546 71.7016 253.13 75.5524ZM247.791 74.0646C247.791 71.2057 247.15 68.9886 245.866 67.4132C244.582 65.7796 242.832 64.9627 240.615 64.9627C237.464 64.9627 233.322 66.9173 228.187 70.8264C223.053 74.6772 218.298 79.6366 213.922 85.7045C210.48 90.5471 207.767 95.5357 205.783 100.67C203.799 105.804 202.807 110.268 202.807 114.06C202.807 116.686 203.391 118.728 204.558 120.187C205.724 121.587 207.358 122.287 209.459 122.287C211.851 122.287 214.826 121.178 218.385 118.961C221.886 116.744 225.474 113.681 229.15 109.772C235.16 103.237 239.769 96.9068 242.978 90.7805C246.187 84.5959 247.791 79.0239 247.791 74.0646ZM346.953 4.22535L280.439 107.234C278.689 110.093 277.347 112.66 276.413 114.935C275.421 117.153 274.925 118.961 274.925 120.362C274.925 121.645 275.246 122.608 275.888 123.25C276.53 123.833 277.58 124.125 279.039 124.125C283.59 124.125 290.504 119.866 299.78 111.347C308.999 102.829 318.743 91.4807 329.011 77.3028L330.149 78.4405C319.764 93.0852 309.728 104.725 300.043 113.36C290.358 121.937 282.685 126.225 277.026 126.225C273.817 126.225 271.337 125.408 269.587 123.775C267.778 122.141 266.874 119.866 266.874 116.948C266.874 115.081 267.341 113.01 268.274 110.735C269.149 108.459 270.9 105.279 273.525 101.195L334.087 5.10052L346.953 4.22535ZM345.293 64.6127C342.959 68.055 339.692 72.8394 335.491 78.9656C319.096 103.121 310.899 116.861 310.899 120.187C310.899 121.062 311.249 121.849 311.949 122.549C312.649 123.25 313.495 123.6 314.487 123.6C319.388 123.6 326.71 119.341 336.454 110.822C346.198 102.245 356 91.1306 365.86 77.4778L367.348 78.4405C355.562 93.6686 345.002 105.367 335.666 113.535C326.273 121.645 318.659 125.7 312.824 125.7C310.14 125.7 307.923 124.796 306.173 122.987C304.422 121.12 303.547 118.757 303.547 115.898C303.547 113.973 304.189 111.406 305.473 108.197C306.756 104.988 308.507 101.749 310.724 98.4821L332.778 65.4879L345.293 64.6127ZM349.757 39.8451C349.757 38.1531 350.369 36.7236 351.595 35.5567C352.761 34.3898 354.191 33.8064 355.883 33.8064C357.517 33.8064 358.946 34.3898 360.171 35.5567C361.455 36.7236 362.097 38.0948 362.097 39.6701C362.097 41.3037 361.426 42.7624 360.084 44.046C358.8 45.3296 357.342 45.9714 355.708 45.9714C354.016 45.9714 352.616 45.3879 351.507 44.221C350.34 43.0541 349.757 41.5955 349.757 39.8451ZM394.832 44.4836L381.442 66.188H404.721L403.496 68.2009H379.954L357.374 103.646C355.566 106.621 354.136 109.48 353.086 112.222C352.036 114.965 351.511 117.24 351.511 119.049C351.511 120.974 352.036 122.374 353.086 123.25C354.078 124.066 355.682 124.475 357.899 124.475C363.909 124.475 372.194 120.187 382.754 111.61C393.315 103.033 403.263 91.9766 412.598 78.4405L413.823 79.1406C403.613 93.6103 393.169 105.104 382.492 113.623C371.815 122.141 362.8 126.4 355.449 126.4C351.948 126.4 349.06 125.263 346.785 122.987C344.509 120.653 343.371 117.736 343.371 114.235C343.371 112.252 343.721 110.239 344.422 108.197C345.122 106.096 346.084 104.054 347.31 102.07L368.839 68.2009H358.687L360.087 66.188H369.977L383.542 45.0962L394.832 44.4836ZM469.488 64.6127L430.543 123.25C440.928 121.033 451.314 115.956 461.699 108.022C472.084 100.028 481.478 89.847 489.88 77.4778L490.93 78.6155C481.886 91.7432 472.055 102.304 461.436 110.297C450.818 118.232 440.053 123.133 429.142 125C419.282 141.92 408.196 154.756 395.886 163.508C383.516 172.26 370.33 176.636 356.328 176.636C347.751 176.636 340.924 174.856 335.848 171.297C330.772 167.738 328.234 163.012 328.234 157.119C328.234 152.218 330.014 148.134 333.573 144.867C337.132 141.658 341.566 140.053 346.876 140.053C348.159 140.053 349.355 140.111 350.464 140.228C351.514 140.345 352.535 140.52 353.527 140.753L353.264 142.416C352.856 142.358 352.389 142.299 351.864 142.241C351.281 142.241 350.58 142.241 349.764 142.241C346.263 142.241 343.346 143.612 341.012 146.354C338.678 149.155 337.511 152.685 337.511 156.944C337.511 162.253 339.32 166.513 342.937 169.722C346.496 172.989 351.193 174.623 357.028 174.623C369.163 174.623 380.657 169.547 391.51 159.395C402.362 149.301 416.394 129.697 433.606 100.583L433.081 100.232C426.138 108.693 419.545 115.023 413.302 119.224C407 123.425 400.991 125.525 395.273 125.525C392.764 125.525 390.722 124.737 389.147 123.162C387.571 121.528 386.784 119.457 386.784 116.948C386.784 115.081 387.25 112.923 388.184 110.472C389.118 108.022 390.401 105.629 392.035 103.296L417.853 65.6629L431.593 64.6127C420.857 77.7987 412.339 89.2052 406.038 98.8322C399.678 108.401 396.498 114.673 396.498 117.648C396.498 119.399 396.936 120.682 397.811 121.499C398.628 122.258 399.97 122.637 401.837 122.637C407.205 122.637 414.935 117.386 425.029 106.884C435.123 96.3817 445.275 82.6414 455.485 65.6629L469.488 64.6127Z" fill="#0126FE"/>
</svg>
